<?xml version="1.0" encoding="utf-8"?><svg xmlns="http://www.w3.org/2000/svg" xmlns:xlink="http://www.w3.org/1999/xlink"><symbol fill="none" viewBox="0 0 41 15" id="icon__arrow-r" xmlns="http://www.w3.org/2000/svg"><path d="M40.707 8.207a1 1 0 000-1.414L34.343.429a1 1 0 10-1.414 1.414L38.586 7.5l-5.657 5.657a1 1 0 001.414 1.414l6.364-6.364zM0 8.5h40v-2H0v2z" fill="#F49700"/></symbol><symbol fill="none" viewBox="0 0 24 24" id="icon__cart" xmlns="http://www.w3.org/2000/svg"><path d="M7.3 5H22l-2 7H8.377M21 16H9L7 3H4m0 5H2m3 3H2m4 3H2m8 6a1 1 0 11-2 0 1 1 0 012 0zm11 0a1 1 0 11-2 0 1 1 0 012 0z"/></symbol><symbol fill="none" viewBox="0 0 24 24" id="icon__faq" xmlns="http://www.w3.org/2000/svg"><path clip-rule="evenodd" d="M2.75 12a9.25 9.25 0 1018.5 0 9.25 9.25 0 00-18.5 0z" stroke="#083570" stroke-width="1.5" stroke-linecap="round" stroke-linejoin="round"/><path d="M8.529 10.558l3.47 3.486 3.472-3.486" stroke="#083570" stroke-width="1.5" stroke-linecap="round" stroke-linejoin="round"/></symbol><symbol fill="none" viewBox="0 0 24 24" id="icon__mail" xmlns="http://www.w3.org/2000/svg"><path fill-rule="evenodd" clip-rule="evenodd" d="M11.777 13.465a3.042 3.042 0 01-1.894-.663L5.398 9.186a.751.751 0 01.94-1.168l4.482 3.612a1.544 1.544 0 001.923-.004l4.436-3.606a.75.75 0 11.947 1.164l-4.444 3.612a3.059 3.059 0 01-1.905.669z" fill="#0055A2"/><mask id="da" style="mask-type:luminance" maskUnits="userSpaceOnUse" x="1" y="2" width="22" height="20"><path fill-rule="evenodd" clip-rule="evenodd" d="M1 2h21.5v19.5H1V2z" fill="#fff"/></mask><g mask="url(#da)"><path fill-rule="evenodd" clip-rule="evenodd" d="M6.839 20h9.82c.002-.002.01 0 .016 0 1.14 0 2.153-.408 2.929-1.183.9-.897 1.396-2.186 1.396-3.629V8.32c0-2.793-1.826-4.82-4.341-4.82H6.84C4.326 3.5 2.5 5.527 2.5 8.32v6.868c0 1.443.496 2.732 1.396 3.629C4.672 19.592 5.685 20 6.825 20h.014zm-.017 1.5c-1.543 0-2.921-.56-3.985-1.62C1.652 18.698 1 17.032 1 15.188V8.32C1 4.717 3.51 2 6.84 2h9.819c3.33 0 5.84 2.717 5.84 6.32v6.868c0 1.844-.651 3.51-1.836 4.692-1.063 1.059-2.442 1.62-3.988 1.62H6.82z" fill="#0055A2"/></g></symbol><symbol viewBox="0 0 60 60" id="icon__menu" xmlns="http://www.w3.org/2000/svg"><circle cx="30" cy="30" r="29.25"/><path d="M15 21h30m-30 9h30m-30 9h30"/></symbol><symbol fill="none" viewBox="0 0 36 36" id="icon__next" xmlns="http://www.w3.org/2000/svg"><rect width="36" height="36" rx="18" transform="matrix(-1 0 0 1 36 0)" fill="#EAEFF3"/><path d="M28.354 17.646a.5.5 0 010 .708l-3.182 3.181a.5.5 0 11-.707-.707L27.293 18l-2.828-2.828a.5.5 0 11.707-.708l3.182 3.182zM8 17.5h20v1H8v-1z" fill="#0055A2"/></symbol><symbol fill="none" viewBox="0 0 24 24" id="icon__phone" xmlns="http://www.w3.org/2000/svg"><path clip-rule="evenodd" d="M3.289 4.088l.072-.076C5.29 2.084 6.544 1.574 7.883 2.344c.385.221.746.531 1.238 1.03l1.506 1.562c.832.908 1.021 1.779.75 2.799l-.037.135-.042.134-.201.59c-.431 1.326-.251 2.073 1.283 3.606 1.594 1.595 2.339 1.725 3.766 1.226l.254-.088.308-.1.134-.037c1.084-.29 2-.059 2.971.912l1.214 1.172.357.352c.396.404.658.724.851 1.062.766 1.339.254 2.593-1.729 4.569l-.188.19a3.45 3.45 0 01-.98.684c-.681.323-1.487.446-2.424.315-2.307-.32-5.234-2.141-8.942-5.849a51.755 51.755 0 01-.868-.888l-.537-.572C1.537 9.683 1.094 6.326 3.155 4.22l.134-.133zm4.617.193c-.325-.321-.562-.517-.77-.637-.462-.265-.96-.153-1.883.64l-.29.26c-.05.046-.102.094-.155.145l-.332.323-.03.038-.225.226c-.544.556-.802 1.235-.58 2.402.365 1.915 2.033 4.513 5.391 7.87 3.5 3.498 6.165 5.156 8.089 5.424 1.121.156 1.693-.116 2.277-.714l.444-.448c.209-.219.387-.417.538-.597l.205-.26c.525-.698.573-1.117.348-1.51a3.03 3.03 0 00-.39-.513l-.245-.259-.145-.145-1.532-1.479c-.511-.472-.861-.539-1.392-.397l-.153.044-.635.215c-1.84.595-3.167.306-5.122-1.648-2.025-2.024-2.262-3.376-1.584-5.322l.044-.125.12-.362.06-.232c.104-.503-.016-.853-.556-1.394a15.343 15.343 0 01-.075-.075l-1.422-1.47z"/></symbol><symbol fill="none" viewBox="0 0 24 24" id="icon__point" xmlns="http://www.w3.org/2000/svg"><path fill-rule="evenodd" clip-rule="evenodd" d="M12.25 8.5A1.751 1.751 0 1014 10.251c0-.966-.784-1.751-1.75-1.751zm0 5A3.253 3.253 0 019 10.251 3.254 3.254 0 0112.25 7a3.254 3.254 0 013.25 3.251 3.253 3.253 0 01-3.25 3.249z" fill="#0055A2"/><mask id="ha" style="mask-type:luminance" maskUnits="userSpaceOnUse" x="4" y="2" width="17" height="20"><path fill-rule="evenodd" clip-rule="evenodd" d="M4 2h16.5v19.5H4V2z" fill="#fff"/></mask><g mask="url(#ha)"><path fill-rule="evenodd" clip-rule="evenodd" d="M12.25 3.5c-3.723 0-6.75 3.057-6.75 6.813 0 4.779 5.623 9.435 6.75 9.683 1.126-.249 6.75-4.905 6.75-9.683C19 6.557 15.972 3.5 12.25 3.5zm0 18C10.455 21.5 4 15.948 4 10.313 4 5.729 7.7 2 12.25 2c4.549 0 8.25 3.729 8.25 8.313 0 5.635-6.457 11.187-8.25 11.187z" fill="#0055A2"/></g></symbol><symbol fill="none" viewBox="0 0 36 36" id="icon__prev" xmlns="http://www.w3.org/2000/svg"><rect width="36" height="36" rx="18" fill="#EAEFF3"/><path d="M7.646 17.646a.5.5 0 000 .708l3.182 3.181a.5.5 0 10.708-.707L8.707 18l2.829-2.828a.5.5 0 10-.708-.708l-3.182 3.182zM28 17.5H8v1h20v-1z" fill="#0055A2"/></symbol><symbol fill="none" viewBox="0 0 24 24" id="icon__search" xmlns="http://www.w3.org/2000/svg"><mask id="ja" style="mask-type:luminance" maskUnits="userSpaceOnUse" x="2" y="2" width="20" height="20"><path fill-rule="evenodd" clip-rule="evenodd" d="M2 2h19.477v19.477H2V2z" fill="#fff"/></mask><g mask="url(#ja)"><path fill-rule="evenodd" clip-rule="evenodd" d="M11.739 3.5C7.196 3.5 3.5 7.195 3.5 11.738c0 4.543 3.696 8.239 8.239 8.239 4.542 0 8.238-3.696 8.238-8.239 0-4.543-3.696-8.238-8.238-8.238zm0 17.977C6.369 21.477 2 17.108 2 11.738 2 6.368 6.369 2 11.739 2c5.37 0 9.738 4.368 9.738 9.738 0 5.37-4.368 9.739-9.738 9.739z" fill="#000"/></g><mask id="jb" style="mask-type:luminance" maskUnits="userSpaceOnUse" x="17" y="17" width="6" height="6"><path fill-rule="evenodd" clip-rule="evenodd" d="M17.24 17.707h5.024v5.015H17.24v-5.015z" fill="#fff"/></mask><g mask="url(#jb)"><path fill-rule="evenodd" clip-rule="evenodd" d="M21.515 22.722a.75.75 0 01-.53-.22L17.46 18.99a.75.75 0 011.06-1.063l3.523 3.515a.749.749 0 01-.53 1.28z" fill="#000"/></g></symbol><symbol fill="none" viewBox="0 0 132 132" id="icon__success" xmlns="http://www.w3.org/2000/svg"><g clip-path="url(#kclip0_1179_329)"><path fill-rule="evenodd" clip-rule="evenodd" d="M66 0c36.426 0 66 29.573 66 66 0 36.426-29.574 66-66 66-36.427 0-66-29.574-66-66C0 29.573 29.573 0 66 0zm0 5.5c33.39 0 60.5 27.11 60.5 60.5S99.39 126.5 66 126.5 5.5 99.39 5.5 66 32.61 5.5 66 5.5zm38.5 41.014L54.972 99.12 27.5 66.864l4.186-3.57 23.49 27.588 45.32-48.136 4.004 3.767z" fill="#FFE748"/></g><defs><clipPath id="kclip0_1179_329"><path fill="#fff" d="M0 0h132v132H0z"/></clipPath></defs></symbol></svg>