<svg width="24" height="24" viewBox="0 0 24 24" fill="none" xmlns="http://www.w3.org/2000/svg">
  <path fill-rule="evenodd" clip-rule="evenodd" d="M5.46967 5.46967C5.76256 5.17678 6.23744 5.17678 6.53033 5.46967L12 10.9394L17.4697 5.46967C17.7626 5.17678 18.2375 5.17678 18.5304 5.46967C18.8233 5.76256 18.8233 6.23744 18.5304 6.53033L13.0607 12L18.5303 17.4696C18.8232 17.7625 18.8232 18.2374 18.5303 18.5303C18.2374 18.8232 17.7625 18.8232 17.4696 18.5303L12 13.0607L6.53033 18.5304C6.23744 18.8233 5.76256 18.8233 5.46967 18.5304C5.17678 18.2375 5.17678 17.7626 5.46967 17.4697L10.9394 12L5.46967 6.53033C5.17678 6.23744 5.17678 5.76256 5.46967 5.46967Z" fill="#BFBFBF" />
</svg>