<svg width="370" height="340" viewBox="0 0 370 340" fill="none" xmlns="http://www.w3.org/2000/svg">
<path fill-rule="evenodd" clip-rule="evenodd" d="M178.438 41.77V50.0427C178.438 51.1473 177.543 52.0427 176.438 52.0427C175.334 52.0427 174.438 51.1473 174.438 50.0427V41.77H178.438Z" fill="#D95982"/>
<path fill-rule="evenodd" clip-rule="evenodd" d="M194.418 41.77V50.0427C194.418 51.1473 193.523 52.0427 192.418 52.0427C191.313 52.0427 190.418 51.1473 190.418 50.0427V41.77H194.418Z" fill="#D95982"/>
<path d="M344.487 206.472C339.186 206.472 334.659 205.302 330.906 202.961C327.188 200.586 324.331 197.418 322.334 193.459C320.372 189.466 319.391 185.025 319.391 180.136C319.391 175.248 320.372 170.824 322.334 166.865C324.331 162.872 327.188 159.704 330.906 157.363C334.659 154.988 339.186 153.8 344.487 153.8C349.755 153.8 354.264 154.988 358.017 157.363C361.769 159.704 364.627 162.872 366.589 166.865C368.586 170.824 369.584 175.248 369.584 180.136C369.584 185.025 368.586 189.466 366.589 193.459C364.627 197.418 361.769 200.586 358.017 202.961C354.264 205.302 349.755 206.472 344.487 206.472ZM344.487 198.21C349.514 198.21 353.369 196.627 356.055 193.459C358.74 190.258 360.082 185.817 360.082 180.136C360.082 174.456 358.74 170.032 356.055 166.865C353.369 163.663 349.514 162.063 344.487 162.063C339.496 162.063 335.64 163.663 332.92 166.865C330.235 170.032 328.892 174.456 328.892 180.136C328.892 185.817 330.235 190.258 332.92 193.459C335.64 196.627 339.496 198.21 344.487 198.21Z" fill="#D95982"/>
<path d="M285.135 206.472C280.831 206.472 276.941 205.302 273.464 202.961C269.987 200.62 267.216 197.47 265.15 193.511C263.119 189.552 262.104 185.128 262.104 180.239C262.104 175.592 263.033 171.254 264.892 167.226C266.785 163.199 269.453 159.962 272.896 157.518C276.339 155.039 280.418 153.8 285.135 153.8C288.508 153.8 291.762 154.54 294.894 156.021C298.062 157.467 300.626 159.894 302.589 163.302L300.626 164.644V127.98H309.922V205.439H301.659L299.904 194.699L302.279 196.351C300.799 199.69 298.475 202.221 295.308 203.942C292.14 205.629 288.749 206.472 285.135 206.472ZM286.787 198.21C289.128 198.21 291.435 197.608 293.707 196.403C296.013 195.198 297.907 193.287 299.387 190.671C300.902 188.02 301.659 184.543 301.659 180.239C301.659 176.246 300.902 172.907 299.387 170.221C297.907 167.502 296.013 165.471 293.707 164.128C291.435 162.751 289.128 162.062 286.787 162.062C283.62 162.062 280.9 162.854 278.628 164.438C276.356 166.021 274.617 168.19 273.413 170.944C272.208 173.664 271.605 176.762 271.605 180.239C271.605 183.51 272.208 186.505 273.413 189.225C274.617 191.944 276.356 194.13 278.628 195.783C280.9 197.401 283.62 198.21 286.787 198.21Z" fill="#D95982"/>
<path d="M227.25 206.472C224.118 206.472 221.381 205.835 219.04 204.561C216.699 203.288 214.874 201.549 213.566 199.346C212.292 197.142 211.655 194.629 211.655 191.806C211.655 188.949 212.275 186.505 213.514 184.474C214.788 182.408 216.475 180.704 218.575 179.361C220.709 177.984 223.085 176.9 225.701 176.108C228.318 175.282 231.02 174.697 233.809 174.352C236.632 173.974 239.334 173.767 241.916 173.733C241.916 168.913 240.969 165.763 239.076 164.283C237.182 162.802 234.445 162.062 230.865 162.062C228.972 162.062 226.941 162.355 224.772 162.94C222.637 163.525 220.227 164.747 217.542 166.606L216.2 159.067C218.231 157.518 220.761 156.261 223.791 155.297C226.82 154.299 230.004 153.8 233.344 153.8C237.613 153.8 241.055 154.557 243.672 156.072C246.288 157.552 248.199 160.065 249.404 163.611C250.609 167.157 251.211 171.977 251.211 178.07V188.398C251.211 190.808 251.314 192.805 251.521 194.388C251.762 195.938 252.278 197.108 253.07 197.9C253.896 198.657 255.204 199.036 256.995 199.036H257.924L256.478 206.472H255.755C252.76 206.472 250.436 206.179 248.784 205.594C247.166 205.009 245.927 204.165 245.066 203.064C244.205 201.962 243.431 200.62 242.742 199.036C240.849 201.239 238.611 203.029 236.029 204.406C233.447 205.783 230.521 206.472 227.25 206.472ZM229.006 199.036C231.485 199.036 233.877 198.416 236.184 197.177C238.525 195.938 240.436 194.285 241.916 192.22V180.136C236.993 180.308 233 180.79 229.936 181.582C226.906 182.374 224.686 183.561 223.274 185.145C221.863 186.729 221.157 188.777 221.157 191.29C221.157 194.01 221.88 195.989 223.326 197.229C224.806 198.433 226.7 199.036 229.006 199.036ZM223.739 145.951V139.651L243.052 128.29V138.411L223.739 145.951Z" fill="#D95982"/>
<path d="M191.815 206.472C186.1 206.472 181.298 205.319 177.408 203.013C173.552 200.672 170.626 197.539 168.629 193.614C166.667 189.655 165.686 185.266 165.686 180.446C165.686 175.42 166.632 170.893 168.526 166.865C170.454 162.837 173.397 159.653 177.356 157.312C181.315 154.971 186.376 153.8 192.538 153.8C195.189 153.8 197.685 154.076 200.026 154.627C202.401 155.143 204.518 155.866 206.377 156.795L204.931 164.954C203.038 164.059 201.024 163.354 198.89 162.837C196.79 162.321 194.604 162.063 192.331 162.063C186.754 162.063 182.503 163.646 179.577 166.813C176.65 169.981 175.187 174.387 175.187 180.033C175.187 185.541 176.581 189.965 179.37 193.304C182.158 196.644 186.41 198.313 192.125 198.313C194.466 198.313 196.704 198.038 198.838 197.487C201.007 196.936 203.072 196.179 205.035 195.215L206.274 202.651C204.897 203.615 202.883 204.493 200.232 205.285C197.581 206.077 194.776 206.472 191.815 206.472Z" fill="#D95982"/>
<path d="M137.21 205.44V154.833H144.853L145.989 163.199C148.571 159.997 151.032 157.639 153.373 156.124C155.748 154.575 158.279 153.8 160.964 153.8C161.825 153.8 162.617 153.904 163.339 154.11L162.41 164.335C161.962 164.231 161.48 164.163 160.964 164.128C160.482 164.059 159.931 164.025 159.312 164.025C156.626 164.025 154.148 164.627 151.876 165.832C149.638 167.003 148.054 168.294 147.125 169.705V205.44H137.21Z" fill="#D95982"/>
<path d="M108.632 206.472C102.676 206.472 97.6668 205.25 93.6045 202.806C89.5422 200.362 86.4611 197.126 84.3611 193.098C82.2955 189.036 81.2627 184.577 81.2627 179.723C81.2627 175.007 82.2266 170.686 84.1545 166.762C86.1168 162.837 88.9397 159.704 92.6234 157.363C96.3414 154.988 100.817 153.8 106.05 153.8C110.25 153.8 113.985 154.644 117.255 156.331C120.56 157.983 123.142 160.41 125.001 163.612C126.895 166.779 127.841 170.635 127.841 175.179C127.841 175.902 127.807 176.694 127.738 177.554C127.704 178.381 127.6 179.241 127.428 180.136H90.7643C91.2119 184.818 92.3307 188.468 94.1209 191.084C95.9111 193.7 98.166 195.542 100.886 196.609C103.605 197.677 106.566 198.21 109.768 198.21C112.109 198.21 114.553 197.969 117.1 197.487C119.648 197.005 122.058 196.248 124.33 195.215L125.569 202.548C123.607 203.408 121.214 204.286 118.391 205.181C115.568 206.042 112.315 206.472 108.632 206.472ZM91.5906 173.733H118.236C118.236 171.358 117.789 169.292 116.894 167.536C115.999 165.781 114.639 164.438 112.814 163.508C110.99 162.545 108.666 162.063 105.843 162.063C101.712 162.063 98.5275 163.095 96.2897 165.161C94.0865 167.192 92.5201 170.049 91.5906 173.733Z" fill="#D95982"/>
<path d="M0.415039 205.44L10.1232 133.145H18.4888L37.4921 168.982L56.2888 133.145H64.7577L74.3626 205.44H64.0347L56.7019 146.467L59.2839 146.881L37.5954 188.295L15.4937 146.881L18.0757 146.467L10.7429 205.44H0.415039Z" fill="#D95982"/>
<path d="M224.905 304.712V305.726H220.727V304.712H224.905ZM222.141 302.834H223.462V310.526C223.462 310.788 223.502 310.985 223.583 311.119C223.664 311.252 223.769 311.34 223.898 311.383C224.026 311.426 224.164 311.447 224.312 311.447C224.421 311.447 224.536 311.438 224.655 311.419C224.778 311.395 224.871 311.376 224.933 311.361L224.94 312.44C224.836 312.473 224.697 312.504 224.526 312.533C224.359 312.566 224.157 312.583 223.919 312.583C223.595 312.583 223.298 312.518 223.026 312.39C222.755 312.261 222.538 312.047 222.376 311.747C222.219 311.442 222.141 311.033 222.141 310.519V302.834Z" fill="#D95982"/>
<path d="M217.12 312.583C216.582 312.583 216.094 312.492 215.656 312.311C215.222 312.126 214.849 311.866 214.534 311.533C214.225 311.199 213.987 310.804 213.82 310.347C213.654 309.89 213.57 309.39 213.57 308.847V308.547C213.57 307.919 213.663 307.359 213.849 306.869C214.035 306.374 214.287 305.955 214.606 305.612C214.925 305.269 215.287 305.01 215.691 304.834C216.096 304.657 216.515 304.569 216.948 304.569C217.501 304.569 217.977 304.665 218.377 304.855C218.782 305.045 219.112 305.312 219.37 305.655C219.627 305.993 219.817 306.393 219.941 306.855C220.065 307.312 220.127 307.812 220.127 308.355V308.947H214.356V307.869H218.805V307.769C218.786 307.426 218.715 307.093 218.591 306.769C218.472 306.445 218.282 306.179 218.02 305.969C217.758 305.76 217.401 305.655 216.948 305.655C216.648 305.655 216.372 305.719 216.12 305.848C215.868 305.972 215.651 306.157 215.47 306.405C215.289 306.652 215.149 306.955 215.049 307.312C214.949 307.669 214.899 308.081 214.899 308.547V308.847C214.899 309.214 214.949 309.559 215.049 309.883C215.153 310.202 215.303 310.483 215.499 310.726C215.699 310.969 215.939 311.159 216.22 311.297C216.506 311.435 216.829 311.504 217.191 311.504C217.658 311.504 218.053 311.409 218.377 311.218C218.701 311.028 218.984 310.773 219.227 310.454L220.027 311.09C219.86 311.342 219.648 311.583 219.391 311.811C219.134 312.04 218.817 312.225 218.441 312.368C218.07 312.511 217.629 312.583 217.12 312.583Z" fill="#D95982"/>
<path d="M207.971 301.47V312.44H206.643V301.47H207.971ZM212.692 304.712L209.321 308.319L207.435 310.276L207.328 308.869L208.678 307.255L211.078 304.712H212.692ZM211.485 312.44L208.728 308.755L209.414 307.576L213.042 312.44H211.485Z" fill="#D95982"/>
<path d="M203.008 305.926V312.44H201.687V304.712H202.972L203.008 305.926ZM205.422 304.669L205.415 305.898C205.305 305.874 205.2 305.86 205.1 305.855C205.005 305.845 204.896 305.841 204.772 305.841C204.467 305.841 204.198 305.888 203.965 305.983C203.731 306.079 203.534 306.212 203.372 306.383C203.21 306.555 203.082 306.76 202.986 306.998C202.896 307.231 202.836 307.488 202.808 307.769L202.436 307.983C202.436 307.517 202.482 307.079 202.572 306.669C202.667 306.26 202.813 305.898 203.008 305.583C203.203 305.264 203.451 305.017 203.751 304.841C204.055 304.66 204.417 304.569 204.836 304.569C204.931 304.569 205.041 304.581 205.165 304.605C205.288 304.624 205.374 304.646 205.422 304.669Z" fill="#D95982"/>
<path d="M198.287 311.118V307.14C198.287 306.836 198.225 306.571 198.101 306.348C197.982 306.119 197.801 305.943 197.559 305.819C197.316 305.695 197.016 305.633 196.659 305.633C196.325 305.633 196.033 305.691 195.78 305.805C195.533 305.919 195.337 306.069 195.195 306.255C195.057 306.441 194.987 306.64 194.987 306.855H193.666C193.666 306.579 193.738 306.305 193.88 306.033C194.023 305.762 194.228 305.517 194.495 305.298C194.766 305.074 195.09 304.898 195.466 304.769C195.847 304.636 196.271 304.569 196.737 304.569C197.299 304.569 197.794 304.665 198.223 304.855C198.656 305.045 198.994 305.334 199.237 305.719C199.485 306.1 199.608 306.579 199.608 307.155V310.754C199.608 311.011 199.63 311.285 199.673 311.576C199.72 311.866 199.789 312.116 199.88 312.325V312.44H198.501C198.435 312.287 198.382 312.085 198.344 311.833C198.306 311.576 198.287 311.338 198.287 311.118ZM198.516 307.755L198.53 308.683H197.194C196.818 308.683 196.483 308.714 196.187 308.776C195.892 308.833 195.645 308.921 195.445 309.04C195.245 309.159 195.092 309.309 194.987 309.49C194.883 309.666 194.83 309.873 194.83 310.111C194.83 310.354 194.885 310.576 194.995 310.776C195.104 310.976 195.268 311.135 195.487 311.254C195.711 311.368 195.985 311.426 196.309 311.426C196.713 311.426 197.071 311.34 197.38 311.168C197.69 310.997 197.935 310.788 198.116 310.54C198.301 310.292 198.401 310.052 198.416 309.819L198.98 310.454C198.946 310.654 198.856 310.876 198.708 311.118C198.561 311.361 198.363 311.595 198.116 311.818C197.873 312.037 197.582 312.221 197.244 312.368C196.911 312.511 196.535 312.583 196.116 312.583C195.592 312.583 195.133 312.48 194.738 312.275C194.347 312.071 194.042 311.797 193.823 311.454C193.609 311.107 193.502 310.719 193.502 310.29C193.502 309.876 193.583 309.512 193.745 309.197C193.907 308.878 194.14 308.614 194.445 308.405C194.749 308.19 195.116 308.028 195.545 307.919C195.973 307.809 196.452 307.755 196.98 307.755H198.516Z" fill="#D95982"/>
<path d="M181.596 302.041H182.931L186.338 310.518L189.738 302.041H191.08L186.852 312.44H185.81L181.596 302.041ZM181.16 302.041H182.339L182.531 308.383V312.44H181.16V302.041ZM190.33 302.041H191.509V312.44H190.138V308.383L190.33 302.041Z" fill="#D95982"/>
<path d="M173.947 310.94V301.47H175.276V312.44H174.062L173.947 310.94ZM168.748 308.662V308.512C168.748 307.921 168.819 307.386 168.962 306.905C169.11 306.419 169.317 306.002 169.584 305.655C169.855 305.307 170.176 305.041 170.548 304.855C170.924 304.665 171.343 304.569 171.805 304.569C172.29 304.569 172.714 304.655 173.076 304.826C173.443 304.993 173.752 305.238 174.005 305.562C174.262 305.881 174.464 306.267 174.612 306.719C174.759 307.171 174.862 307.683 174.919 308.255V308.912C174.866 309.478 174.764 309.988 174.612 310.44C174.464 310.892 174.262 311.278 174.005 311.597C173.752 311.916 173.443 312.161 173.076 312.333C172.709 312.499 172.281 312.583 171.791 312.583C171.338 312.583 170.924 312.485 170.548 312.29C170.176 312.095 169.855 311.821 169.584 311.468C169.317 311.116 169.11 310.702 168.962 310.226C168.819 309.745 168.748 309.223 168.748 308.662ZM170.076 308.512V308.662C170.076 309.047 170.115 309.409 170.191 309.747C170.272 310.085 170.395 310.383 170.562 310.64C170.729 310.897 170.941 311.099 171.198 311.247C171.455 311.39 171.762 311.461 172.119 311.461C172.557 311.461 172.917 311.368 173.197 311.183C173.483 310.997 173.712 310.752 173.883 310.447C174.055 310.142 174.188 309.812 174.283 309.454V307.733C174.226 307.471 174.143 307.219 174.033 306.976C173.928 306.729 173.79 306.51 173.619 306.319C173.452 306.124 173.245 305.969 172.997 305.855C172.755 305.741 172.467 305.683 172.133 305.683C171.771 305.683 171.46 305.76 171.198 305.912C170.941 306.06 170.729 306.264 170.562 306.526C170.395 306.783 170.272 307.083 170.191 307.426C170.115 307.764 170.076 308.126 170.076 308.512Z" fill="#D95982"/>
<path d="M160.385 308.662V308.497C160.385 307.94 160.466 307.424 160.628 306.948C160.789 306.467 161.023 306.05 161.328 305.698C161.632 305.341 162.001 305.065 162.435 304.869C162.868 304.669 163.353 304.569 163.891 304.569C164.434 304.569 164.922 304.669 165.356 304.869C165.794 305.065 166.165 305.341 166.47 305.698C166.779 306.05 167.015 306.467 167.177 306.948C167.339 307.424 167.42 307.94 167.42 308.497V308.662C167.42 309.219 167.339 309.735 167.177 310.211C167.015 310.688 166.779 311.104 166.47 311.461C166.165 311.814 165.796 312.09 165.363 312.29C164.934 312.485 164.449 312.583 163.906 312.583C163.363 312.583 162.875 312.485 162.442 312.29C162.008 312.09 161.637 311.814 161.328 311.461C161.023 311.104 160.789 310.688 160.628 310.211C160.466 309.735 160.385 309.219 160.385 308.662ZM161.706 308.497V308.662C161.706 309.047 161.751 309.412 161.842 309.754C161.932 310.092 162.068 310.392 162.249 310.654C162.435 310.916 162.665 311.123 162.942 311.276C163.218 311.423 163.539 311.497 163.906 311.497C164.268 311.497 164.584 311.423 164.856 311.276C165.132 311.123 165.36 310.916 165.541 310.654C165.722 310.392 165.858 310.092 165.948 309.754C166.044 309.412 166.091 309.047 166.091 308.662V308.497C166.091 308.116 166.044 307.757 165.948 307.419C165.858 307.076 165.72 306.774 165.534 306.512C165.353 306.245 165.125 306.036 164.848 305.883C164.577 305.731 164.258 305.655 163.891 305.655C163.53 305.655 163.211 305.731 162.934 305.883C162.663 306.036 162.435 306.245 162.249 306.512C162.068 306.774 161.932 307.076 161.842 307.419C161.751 307.757 161.706 308.116 161.706 308.497Z" fill="#D95982"/>
<path d="M152.043 308.662V308.497C152.043 307.94 152.124 307.424 152.286 306.948C152.448 306.467 152.681 306.05 152.986 305.698C153.29 305.341 153.659 305.065 154.093 304.869C154.526 304.669 155.012 304.569 155.55 304.569C156.092 304.569 156.58 304.669 157.014 304.869C157.452 305.065 157.823 305.341 158.128 305.698C158.437 306.05 158.673 306.467 158.835 306.948C158.997 307.424 159.078 307.94 159.078 308.497V308.662C159.078 309.219 158.997 309.735 158.835 310.211C158.673 310.688 158.437 311.104 158.128 311.461C157.823 311.814 157.454 312.09 157.021 312.29C156.592 312.485 156.107 312.583 155.564 312.583C155.021 312.583 154.533 312.485 154.1 312.29C153.667 312.09 153.295 311.814 152.986 311.461C152.681 311.104 152.448 310.688 152.286 310.211C152.124 309.735 152.043 309.219 152.043 308.662ZM153.364 308.497V308.662C153.364 309.047 153.409 309.412 153.5 309.754C153.59 310.092 153.726 310.392 153.907 310.654C154.093 310.916 154.324 311.123 154.6 311.276C154.876 311.423 155.197 311.497 155.564 311.497C155.926 311.497 156.242 311.423 156.514 311.276C156.79 311.123 157.019 310.916 157.199 310.654C157.38 310.392 157.516 310.092 157.607 309.754C157.702 309.412 157.749 309.047 157.749 308.662V308.497C157.749 308.116 157.702 307.757 157.607 307.419C157.516 307.076 157.378 306.774 157.192 306.512C157.011 306.245 156.783 306.036 156.507 305.883C156.235 305.731 155.916 305.655 155.55 305.655C155.188 305.655 154.869 305.731 154.593 305.883C154.321 306.036 154.093 306.245 153.907 306.512C153.726 306.774 153.59 307.076 153.5 307.419C153.409 307.757 153.364 308.116 153.364 308.497Z" fill="#D95982"/>
<path d="M146.043 302.041V312.44H144.665V302.041H146.043ZM150.4 306.719V307.847H145.743V306.719H150.4ZM151.107 302.041V303.169H145.743V302.041H151.107Z" fill="#D95982"/>
<path fill-rule="evenodd" clip-rule="evenodd" d="M84.458 0.939453H284.958V123.939C284.958 125.044 284.063 125.939 282.958 125.939C281.853 125.939 280.958 125.044 280.958 123.939V4.93945H88.458V123.939C88.458 125.044 87.5626 125.939 86.458 125.939C85.3534 125.939 84.458 125.044 84.458 123.939V0.939453Z" fill="#D95982"/>
<path fill-rule="evenodd" clip-rule="evenodd" d="M84.458 339.439H284.958V216.439C284.958 215.335 284.063 214.439 282.958 214.439C281.853 214.439 280.958 215.335 280.958 216.439V335.439H88.458V216.439C88.458 215.335 87.5626 214.439 86.458 214.439C85.3534 214.439 84.458 215.335 84.458 216.439V339.439Z" fill="#D95982"/>
<path fill-rule="evenodd" clip-rule="evenodd" d="M115.458 285.439C115.458 285.992 115.906 286.439 116.458 286.439H252.958C253.51 286.439 253.958 285.992 253.958 285.439C253.958 284.887 253.51 284.439 252.958 284.439H116.458C115.906 284.439 115.458 284.887 115.458 285.439Z" fill="#D95982"/>
<path fill-rule="evenodd" clip-rule="evenodd" d="M170.289 38.9302C166.964 38.9302 164.098 41.2694 163.431 44.527L160.354 59.5671C160.262 60.0148 160.191 60.5595 160.236 61.1534C160.38 63.0712 161.094 64.83 162.208 66.2613V80.4397C162.208 84.3057 165.342 87.4397 169.208 87.4397H200.208C204.074 87.4397 207.208 84.3057 207.208 80.4397V66.2623C208.45 64.6679 209.194 62.6672 209.208 60.4931L207.208 60.4801L209.208 60.4867C209.209 60.3163 209.192 60.1463 209.158 59.9794L205.987 44.5236C205.319 41.2676 202.454 38.9302 199.13 38.9302H170.289ZM203.208 69.2648C202.125 69.6942 200.944 69.9302 199.709 69.9302C197.492 69.9302 195.181 69.5834 193.361 68.4458C192.939 68.1818 192.554 67.8816 192.208 67.5462C191.863 67.8816 191.478 68.1817 191.056 68.4457C189.236 69.5834 186.925 69.9302 184.709 69.9302C182.492 69.9302 180.181 69.5834 178.361 68.4458C177.939 68.1818 177.554 67.8816 177.208 67.5462C176.863 67.8816 176.478 68.1817 176.056 68.4457C174.236 69.5834 171.925 69.9302 169.709 69.9302C168.472 69.9302 167.291 69.6941 166.208 69.2646V80.4397C166.208 82.0965 167.551 83.4397 169.208 83.4397H200.208C201.865 83.4397 203.208 82.0965 203.208 80.4397V69.2648ZM202.069 45.3273L205.205 60.6179C205.107 63.5684 202.683 65.9302 199.709 65.9302C197.8 65.9302 196.374 65.6115 195.482 65.0539C194.737 64.5886 194.218 63.8789 194.208 62.4671C194.201 61.3676 193.308 60.4801 192.208 60.4801C191.109 60.4801 190.216 61.3676 190.208 62.4671C190.199 63.879 189.68 64.5886 188.935 65.0539C188.043 65.6115 186.617 65.9302 184.709 65.9302C182.8 65.9302 181.374 65.6115 180.482 65.0539C179.737 64.5886 179.218 63.8789 179.208 62.4671C179.201 61.3676 178.308 60.4801 177.208 60.4801C176.109 60.4801 175.216 61.3676 175.208 62.4671C175.199 63.879 174.68 64.5886 173.935 65.0539C173.043 65.6115 171.617 65.9302 169.709 65.9302C166.813 65.9302 164.439 63.6915 164.224 60.8522C164.217 60.7529 164.225 60.6022 164.273 60.3689L167.35 45.3288C167.636 43.9327 168.864 42.9302 170.289 42.9302H199.13C200.555 42.9302 201.783 43.9319 202.069 45.3273Z" fill="#D95982"/>
</svg>
