<svg width="20" height="21" viewBox="0 0 20 21" fill="none" xmlns="http://www.w3.org/2000/svg">
<path d="M7.50246 2.75722C7.19873 1.9979 6.46332 1.5 5.64551 1.5H2.89474C1.8483 1.5 1 2.3481 1 3.39453C1 12.2892 8.21078 19.5 17.1055 19.5C18.1519 19.5 19 18.6516 19 17.6052L19.0005 14.854C19.0005 14.0361 18.5027 13.3009 17.7434 12.9971L15.1069 11.9429C14.4249 11.6701 13.6483 11.7929 13.0839 12.2632L12.4035 12.8307C11.6089 13.4929 10.4396 13.4402 9.7082 12.7088L7.79222 10.7911C7.06079 10.0596 7.00673 8.89134 7.66895 8.09668L8.23633 7.4163C8.70661 6.85195 8.83049 6.07516 8.55766 5.39309L7.50246 2.75722Z" stroke="#D95982" stroke-width="2" stroke-linecap="round" stroke-linejoin="round"/>
</svg>
