<svg width="49" height="50" viewBox="0 0 49 50" fill="none" xmlns="http://www.w3.org/2000/svg">
<path d="M4 28.0908V42.0908C4 44.8522 6.23858 47.0908 9 47.0908H40C42.7614 47.0908 45 44.8522 45 42.0908V28.0908" stroke="#D95982" stroke-width="4"/>
<path d="M14.4707 11.5C14.4707 12.6046 15.3661 13.5 16.4707 13.5C17.5753 13.5 18.4707 12.6046 18.4707 11.5L14.4707 11.5ZM18.4707 11.5L18.4707 2L14.4707 2L14.4707 11.5L18.4707 11.5Z" fill="#D95982"/>
<path d="M30.5303 11.5C30.5303 12.6046 31.4257 13.5 32.5303 13.5C33.6348 13.5 34.5303 12.6046 34.5303 11.5L30.5303 11.5ZM34.5303 11.5L34.5303 2L30.5303 2L30.5303 11.5L34.5303 11.5Z" fill="#D95982"/>
<path d="M17.0001 24.1949C17.0001 28.337 13.6422 29.6949 9.5001 29.6949C5.35797 29.6949 2.0001 26.337 2.0001 22.1949V22.1949C2.0001 22.1463 2.00501 22.0978 2.01477 22.0502L5.18182 6.57947C5.65811 4.25282 7.70533 2.58223 10.0802 2.58223H38.9199C41.2948 2.58223 43.3421 4.25286 43.8183 6.57955L46.9851 22.0502C46.9948 22.0978 47.0001 22.1463 47.0001 22.1949V22.1949C47.0001 26.337 43.6422 29.6949 39.5001 29.6949C35.358 29.6949 32.0001 28.337 32.0001 24.1949M17.0001 24.1949C17.0001 28.337 20.358 29.6949 24.5001 29.6949C28.6422 29.6949 32.0001 28.337 32.0001 24.1949M17.0001 24.1949C17.0001 24.1705 17 24.1461 16.9998 24.1218M32.0001 24.1949C32.0001 24.1705 32.0002 24.1461 32.0005 24.1218" stroke="#D95982" stroke-width="4" stroke-linecap="round" stroke-linejoin="round"/>
</svg>
