<svg width="72" height="72" viewBox="0 0 72 72" fill="none" xmlns="http://www.w3.org/2000/svg">
<path d="M50.6395 64.4466C48.3403 64.4466 46.1635 63.6006 44.7115 62.1486L44.2279 61.665C43.6219 61.0602 42.6547 61.0602 42.0487 61.665C40.3555 63.3582 38.1787 64.2054 35.8795 64.2054C31.6435 64.2054 28.1371 61.1814 27.2887 57.309C27.1687 56.583 26.4415 55.9782 25.5943 56.0994C17.8519 56.9454 11.4391 50.5338 12.0439 42.9114C12.0439 42.1854 11.6827 41.4594 10.9555 41.3382C9.50349 40.9758 8.17391 40.1298 7.08431 39.0402C3.69671 35.6526 3.69671 30.0871 7.08431 26.5795C7.68911 25.9735 7.68909 25.1274 7.20549 24.5226C3.93789 20.8914 4.66511 14.601 8.89871 10.3662C11.3191 7.94581 14.3431 6.61621 17.3683 6.61621C19.6675 6.61621 21.8443 7.46345 23.2963 8.91425C23.9011 9.52025 24.8695 9.52025 25.4743 8.91425C28.8619 5.52785 34.4275 5.52785 37.8151 8.91425C38.9035 10.0039 39.6307 11.3334 39.9919 12.6654C40.2355 13.3902 40.8391 13.875 41.5651 13.7538C49.4299 13.029 55.8415 19.6818 54.8743 27.4254C54.7531 28.1514 55.2379 28.8775 56.0839 29.1199C59.9551 29.9659 62.8591 33.4746 62.8591 37.7094C62.8591 40.0086 61.8907 42.3066 60.3187 43.8798C59.7139 44.4834 59.7139 45.4519 60.3187 46.0579C62.0119 47.7511 62.8591 50.1714 62.6167 52.8318C62.3755 55.131 61.5283 57.309 59.9551 59.2446L53.4223 52.7118L52.4539 39.4026C52.3339 38.5566 51.6067 37.9506 50.8819 37.9506C50.0347 38.073 49.4299 38.7978 49.4299 39.525L50.1559 49.3242L44.8327 43.9998L44.2279 36.621C44.1055 35.7738 43.3807 35.169 42.6547 35.169C41.8075 35.289 41.2027 36.015 41.2027 36.741L41.4439 40.6134L37.6939 36.9822L37.3315 32.8699C37.2103 32.0239 36.4843 31.4178 35.7583 31.4178C34.9111 31.539 34.3063 32.265 34.3063 32.991V33.5958L27.6523 26.9406C27.0463 26.3358 26.0791 26.3358 25.4743 26.9406C24.8695 27.5466 24.8695 28.5151 25.4743 29.1199L32.2495 35.8938H31.6435C30.7975 35.7738 30.0715 36.4986 30.0715 37.3458C29.9503 38.193 30.6775 38.919 31.5235 38.919L35.6383 39.2814L39.8719 43.5174L35.9995 43.275C35.1535 43.1538 34.4275 43.8798 34.4275 44.727C34.3063 45.5742 35.0323 46.299 35.8795 46.299L43.2595 46.9038L48.5827 52.2282L38.7835 51.5011C37.9363 51.3811 37.2103 52.107 37.2103 52.953C37.0879 53.8002 37.8151 54.5263 38.6623 54.5263L51.9703 55.4934L58.5031 62.0286C55.9627 63.3582 53.3011 64.4466 50.6395 64.4466ZM62.3755 61.665C64.4323 59.2446 65.6407 56.3406 65.8843 53.3166C66.1255 50.1714 65.3995 47.3874 63.5851 45.0894C65.1571 43.0326 66.1255 40.491 66.1255 37.8306C66.1255 32.6286 62.7379 28.2726 58.2619 26.6994C58.6243 17.9886 51.4867 10.7298 42.7759 10.8498C42.1711 9.39782 41.3239 8.06827 40.1143 6.85747C35.7583 2.50267 29.1031 2.26026 24.5059 5.88906C22.5703 4.43706 20.1511 3.59101 17.4883 3.59101C13.6183 3.59101 9.74592 5.2842 6.84192 8.1882C1.88232 13.149 0.792706 20.4078 4.18151 25.3686C0.550306 29.9658 0.79269 36.741 5.02749 41.097C6.23829 42.3066 7.5691 43.1538 9.1411 43.7586C9.1411 52.2282 16.0375 59.3658 24.8695 59.1246C25.4743 60.8178 26.4415 62.3898 27.7735 63.7218C32.0071 67.9554 38.7835 68.3191 43.3807 64.6891C45.4375 66.5035 48.0979 67.3506 50.8819 67.3506C54.2695 67.3506 57.6571 66.0198 60.4387 63.7218L66.3679 69.6498C66.9727 70.2546 67.9399 70.2546 68.5447 69.6498C69.1495 69.045 69.1495 68.0778 68.5447 67.4718L62.3755 61.665Z" fill="#D95982"/>
<path d="M17.0051 28.9984C14.7071 26.6992 10.8359 26.6992 8.41551 28.9984C7.81071 29.6032 7.81071 30.5717 8.41551 31.1765C9.02031 31.7813 9.98871 31.7813 10.5923 31.1765C11.8031 29.9657 13.7387 29.9657 14.8283 31.1765C16.0379 32.3849 16.0379 34.3216 14.8283 35.41C14.2235 36.0148 14.2235 36.982 14.8283 37.588C15.4331 38.1928 16.4003 38.1928 17.0051 37.588C19.3043 35.2888 19.3043 31.4176 17.0051 28.9984Z" fill="#D95982"/>
<path d="M22.812 45.3318C21.1176 45.3318 19.7868 43.9998 19.7868 42.3066C19.7868 41.4594 19.0608 40.7334 18.2148 40.7334C17.3676 40.7334 16.6416 41.4594 16.6416 42.3066C16.6416 45.6942 19.3032 48.3558 22.6908 48.3558C23.5368 48.3558 24.264 47.631 24.264 46.7826C24.264 45.9354 23.6592 45.3318 22.812 45.3318Z" fill="#D95982"/>
<path d="M32.9751 23.6754C33.5799 24.2802 34.5471 24.2802 35.1531 23.6754C37.4511 21.3762 37.4511 17.505 35.1531 15.0846C34.5471 14.4798 33.5799 14.4798 32.9751 15.0846C32.3703 15.6894 32.3703 16.6578 32.9751 17.2626C34.1859 18.4734 34.1859 20.4078 32.9751 21.4974C32.4903 22.1022 32.4903 23.0706 32.9751 23.6754Z" fill="#D95982"/>
<path d="M43.7427 32.265C44.3475 32.8698 45.3159 32.8698 45.9207 32.265C48.2199 29.9658 48.2199 26.0946 45.9207 23.6754C45.3159 23.0706 44.3475 23.0706 43.7427 23.6754C43.1379 24.2802 43.1379 25.2474 43.7427 25.8522C44.9523 27.063 44.9523 28.9986 43.7427 30.087C43.1379 30.6918 43.1379 31.6602 43.7427 32.265Z" fill="#D95982"/>
<path d="M8.29446 63.963C7.44726 63.963 6.72246 63.237 6.72246 62.3898C6.72246 61.5438 7.44726 60.8178 8.29446 60.8178C9.14166 60.8178 9.86766 61.5438 9.86766 62.3898C9.74646 63.237 9.14166 63.963 8.29446 63.963ZM8.29446 57.9138C5.75406 57.9138 3.69727 59.9706 3.69727 62.511C3.69727 65.0514 5.75406 67.1094 8.29446 67.1094C10.8361 67.1094 12.8917 65.0514 12.8917 62.511C12.8917 59.9706 10.7149 57.9138 8.29446 57.9138Z" fill="#D95982"/>
<path d="M62.7377 4.9218C64.4321 4.9218 65.7629 6.2526 65.7629 7.947C65.7629 9.6402 64.4321 10.9722 62.7377 10.9722C61.0433 10.9722 59.7137 9.6402 59.7137 7.947C59.7137 6.2526 61.0433 4.9218 62.7377 4.9218ZM62.7377 13.9962C66.1253 13.9962 68.788 11.3334 68.788 7.947C68.788 4.5594 66.1253 1.89661 62.7377 1.89661C59.3501 1.89661 56.6885 4.5594 56.6885 7.947C56.6885 11.3334 59.3501 13.9962 62.7377 13.9962Z" fill="#D95982"/>
<path d="M65.7627 17.0214C66.6315 17.0214 67.3359 17.7246 67.3359 18.5934C67.3359 19.4622 66.6315 20.1665 65.7627 20.1665C64.8927 20.1665 64.1895 19.4622 64.1895 18.5934C64.1895 17.7246 64.8927 17.0214 65.7627 17.0214Z" fill="#D95982"/>
<path d="M46.0407 3.34851C46.9107 3.34851 47.614 4.05288 47.614 4.92168C47.614 5.79048 46.9107 6.49492 46.0407 6.49492C45.1731 6.49492 44.4688 5.79048 44.4688 4.92168C44.4688 4.05288 45.1731 3.34851 46.0407 3.34851Z" fill="#D95982"/>
<path d="M5.27047 3.34851C6.13807 3.34851 6.84247 4.05288 6.84247 4.92168C6.84247 5.79048 6.13807 6.49492 5.27047 6.49492C4.40167 6.49492 3.69727 5.79048 3.69727 4.92168C3.69727 4.05288 4.40167 3.34851 5.27047 3.34851Z" fill="#D95982"/>
<path d="M3.69602 47.2675C4.56482 47.2675 5.26923 47.9719 5.26923 48.8395C5.26923 49.7083 4.56482 50.4126 3.69602 50.4126C2.82722 50.4126 2.12402 49.7083 2.12402 48.8395C2.12402 47.9719 2.82722 47.2675 3.69602 47.2675Z" fill="#D95982"/>
<path d="M23.417 66.8671C24.2858 66.8671 24.989 67.5715 24.989 68.4391C24.989 69.3091 24.2858 70.0122 23.417 70.0122C22.5482 70.0122 21.8438 69.3091 21.8438 68.4391C21.8438 67.5715 22.5482 66.8671 23.417 66.8671Z" fill="#D95982"/>
<path d="M68.788 57.7926C69.6556 57.7926 70.36 58.497 70.36 59.3658C70.36 60.2334 69.6556 60.9378 68.788 60.9378C67.918 60.9378 67.2148 60.2334 67.2148 59.3658C67.2148 58.497 67.918 57.7926 68.788 57.7926Z" fill="#D95982"/>
</svg>
