<svg width="73" height="72" viewBox="0 0 73 72" fill="none" xmlns="http://www.w3.org/2000/svg">
<path d="M55.8118 30.4956H52.9078C52.0606 30.4956 51.3345 31.2204 51.3345 32.0676C51.3345 32.9148 52.0606 33.6408 52.9078 33.6408H54.4809V68.6052H16.7325V65.5812H46.9798C47.827 65.5812 48.5517 64.8552 48.5517 64.008C48.5517 63.1608 47.827 62.4348 46.9798 62.4348H16.7325V33.5196H18.3057C19.1529 33.5196 19.8777 32.7936 19.8777 31.9476C19.8777 31.1004 19.1529 30.3732 18.3057 30.3732H15.4017C11.7729 29.7684 9.23135 26.6232 9.23135 22.9944C9.23135 18.8796 12.619 15.3708 16.8538 15.3708H25.9282C26.7754 15.3708 27.5013 14.646 27.5013 13.7988V11.5008C27.5013 6.90363 31.2513 3.15239 35.8485 3.15239C40.4469 3.15239 44.1969 6.90363 44.1969 11.5008V13.7988C44.1969 14.646 44.923 15.3708 45.7702 15.3708H54.8433C58.9569 15.3708 62.4657 18.7584 62.4657 22.9944C62.1021 26.7444 59.4418 29.8896 55.8118 30.4956ZM65.1274 23.1144C65.1274 17.3064 60.4089 12.468 54.4809 12.468H46.8586V11.742C46.8586 5.45162 41.7765 0.369629 35.4861 0.369629C29.1945 0.369629 24.1125 5.45162 24.1125 11.742V12.468H16.4914C10.6834 12.468 5.84375 17.1864 5.84375 23.1144C5.84375 27.8328 8.99014 31.9476 13.4661 33.2772V70.0572C13.4661 70.9044 14.1921 71.6304 15.0393 71.6304H55.9317C56.7789 71.6304 57.5049 70.9044 57.5049 70.0572V33.2772C61.9821 31.9476 65.1274 27.8328 65.1274 23.1144Z" fill="#D95982"/>
<path d="M31.8563 20.0905C31.8563 19.2433 31.1303 18.5173 30.2831 18.5173H19.6367C18.7895 18.5173 18.0635 19.2433 18.0635 20.0905C18.0635 20.9377 18.7895 21.6626 19.6367 21.6626H30.2831C31.1303 21.5426 31.8563 20.9377 31.8563 20.0905Z" fill="#D95982"/>
<path d="M34.8796 24.5664H40.9288C41.776 24.5664 42.502 23.8404 42.502 22.9944C42.502 22.1472 41.776 21.4211 40.9288 21.4211H34.8796C34.0336 21.4211 33.3076 22.1472 33.3076 22.9944C33.3076 23.9616 34.0336 24.5664 34.8796 24.5664Z" fill="#D95982"/>
<path d="M51.456 62.3136C52.3248 62.3136 53.0292 63.018 53.0292 63.8868C53.0292 64.7556 52.3248 65.46 51.456 65.46C50.5872 65.46 49.8828 64.7556 49.8828 63.8868C49.8828 63.018 50.5872 62.3136 51.456 62.3136Z" fill="#D95982"/>
<path d="M66.579 50.2152C67.4478 50.2152 68.151 50.9197 68.151 51.7885C68.151 52.6561 67.4478 53.3604 66.579 53.3604C65.7102 53.3604 65.0059 52.6561 65.0059 51.7885C65.0059 50.9197 65.7102 50.2152 66.579 50.2152Z" fill="#D95982"/>
<path d="M6.0859 39.6899C6.9547 39.6899 7.65911 40.3943 7.65911 41.2619C7.65911 42.1307 6.9547 42.8352 6.0859 42.8352C5.2171 42.8352 4.5127 42.1307 4.5127 41.2619C4.5127 40.3943 5.2171 39.6899 6.0859 39.6899Z" fill="#D95982"/>
<path d="M62.1023 4.84558C62.9723 4.84558 63.6755 5.55002 63.6755 6.41882C63.6755 7.28762 62.9723 7.99199 62.1023 7.99199C61.2347 7.99199 60.5303 7.28762 60.5303 6.41882C60.5303 5.55002 61.2347 4.84558 62.1023 4.84558Z" fill="#D95982"/>
<path d="M19.7578 1.82043C20.6266 1.82043 21.3298 2.52488 21.3298 3.39368C21.3298 4.26248 20.6266 4.96685 19.7578 4.96685C18.889 4.96685 18.1846 4.26248 18.1846 3.39368C18.1846 2.52488 18.889 1.82043 19.7578 1.82043Z" fill="#D95982"/>
<path d="M6.0859 9.44409C6.9547 9.44409 7.65911 10.1485 7.65911 11.0161C7.65911 11.8849 6.9547 12.5893 6.0859 12.5893C5.2171 12.5893 4.5127 11.8849 4.5127 11.0161C4.5127 10.1485 5.2171 9.44409 6.0859 9.44409Z" fill="#D95982"/>
<path d="M45.4072 21.5425C46.276 21.5425 46.9804 22.2469 46.9804 23.1145C46.9804 23.9833 46.276 24.6877 45.4072 24.6877C44.5384 24.6877 43.834 23.9833 43.834 23.1145C43.834 22.2469 44.5384 21.5425 45.4072 21.5425Z" fill="#D95982"/>
<path d="M6.08645 56.3855C5.23925 56.3855 4.51324 55.6596 4.51324 54.8124C4.51324 53.9664 5.23925 53.2403 6.08645 53.2403C6.93365 53.2403 7.65966 53.9664 7.65966 54.8124C7.65966 55.6596 6.93365 56.3855 6.08645 56.3855ZM6.08645 50.3363C3.54605 50.3363 1.48926 52.3931 1.48926 54.9347C1.48926 57.4751 3.54605 59.5319 6.08645 59.5319C8.62685 59.5319 10.6836 57.4751 10.6836 54.9347C10.6836 52.3931 8.62685 50.3363 6.08645 50.3363Z" fill="#D95982"/>
<path d="M65.8535 41.262C64.6439 41.262 63.5543 40.2948 63.5543 38.964C63.5543 37.6332 64.5227 36.6648 65.8535 36.6648C67.1843 36.6648 68.1515 37.6332 68.1515 38.964C68.1515 40.2948 67.0631 41.262 65.8535 41.262ZM65.8535 33.6409C62.9495 33.6409 60.5303 36.06 60.5303 38.964C60.5303 41.8668 62.9495 44.2872 65.8535 44.2872C68.7575 44.2872 71.1767 41.8668 71.1767 38.964C71.1767 36.06 68.7575 33.6409 65.8535 33.6409Z" fill="#D95982"/>
</svg>
