<svg width="73" height="72" viewBox="0 0 73 72" fill="none" xmlns="http://www.w3.org/2000/svg">
<path d="M35.952 62.0294C26.6567 62.0294 19.1498 54.5213 19.1498 45.2259C19.1498 35.9306 26.6567 28.4237 35.952 28.4237C45.2485 28.4237 52.7555 35.9306 52.7555 45.2259C52.7555 54.4019 45.1292 62.0294 35.952 62.0294ZM35.952 25.4438C24.9889 25.4438 16.1699 34.2616 16.1699 45.2259C16.1699 56.1903 24.9889 65.0092 35.952 65.0092C46.9164 65.0092 55.7353 56.1903 55.7353 45.2259C55.7353 34.2616 46.797 25.4438 35.952 25.4438Z" fill="#D95982"/>
<path d="M35.9517 32.4745C35.1184 32.4745 34.4033 33.1896 34.4033 34.0241C34.4033 34.8586 35.1184 35.5725 35.9517 35.5725C41.3157 35.5725 45.7246 39.9826 45.7246 45.3454C45.7246 50.7082 41.3157 55.1182 35.9517 55.1182C30.589 55.1182 26.1801 50.7082 26.1801 45.3454C26.1801 44.5109 25.465 43.7958 24.6305 43.7958C23.7971 43.7958 23.082 44.5109 23.082 45.3454C23.082 52.376 28.8018 58.0969 35.8335 58.0969C42.8641 58.0969 48.585 52.376 48.585 45.3454C48.585 38.3148 42.9835 32.4745 35.9517 32.4745Z" fill="#D95982"/>
<path d="M35.9512 42.4849C37.5008 42.4849 38.6923 43.6775 38.6923 45.226C38.6923 46.7756 37.5008 47.967 35.9512 47.967C34.4028 47.967 33.2113 46.7756 33.2113 45.226C33.2113 43.6775 34.4028 42.4849 35.9512 42.4849ZM35.9512 50.9457C39.0504 50.9457 41.6721 48.4434 41.6721 45.226C41.6721 42.1267 39.1698 39.5062 35.9512 39.5062C32.8531 39.5062 30.2314 42.0085 30.2314 45.226C30.2314 48.324 32.7338 50.9457 35.9512 50.9457Z" fill="#D95982"/>
<path d="M44.89 67.2728C32.7343 72.1592 18.7913 66.5577 13.7855 54.1643C11.4025 48.324 11.4025 41.771 13.906 35.9307C18.6719 24.6094 31.1858 18.8884 42.6253 22.3446C42.7447 22.464 42.8641 22.464 42.9834 22.464C49.6571 24.49 55.1392 29.4958 57.8803 36.1682C63.0043 48.324 57.0458 62.267 44.89 67.2728ZM26.0606 9.59312C27.4909 11.0233 29.0405 12.9299 30.4707 15.4322C30.8277 16.028 31.5428 16.2667 32.1385 16.1485C32.7342 16.028 33.2118 15.4322 33.2118 14.7183C33.2118 10.904 34.1645 7.09081 35.8335 4.11096C37.7401 7.32957 38.6928 11.4997 38.5746 15.1946C38.5746 15.9098 39.0509 16.5055 39.6466 16.6249C40.3618 16.7443 40.9575 16.5055 41.3156 15.9098C42.6253 13.5257 44.0555 11.6203 45.2482 10.3082C44.0555 12.6924 42.7447 15.7904 41.9102 19.009C37.9777 18.0551 33.8063 18.0551 29.7556 18.8884C29.0405 15.5528 27.3727 12.0954 26.0606 9.59312ZM45.0094 19.9605C46.2009 14.5989 49.4183 9.47373 50.2528 7.44777C50.4916 6.97142 51.0873 5.77995 50.014 4.94545C49.7765 4.70787 49.1807 4.46909 48.4656 4.58729C47.0354 4.82724 44.1749 6.97141 41.3156 10.6664C40.7199 6.73383 39.1703 3.15828 37.0249 0.536581C36.4292 -0.178535 35.3559 -0.178535 34.7602 0.536581C32.7342 3.03889 31.304 6.49508 30.7083 10.19C29.1599 8.16408 26.8951 5.77994 24.7498 4.58729C23.6777 3.99274 22.9626 3.87337 22.3668 3.99275C21.8893 4.11095 21.5323 4.4691 21.2948 4.94545C20.9366 6.01753 21.413 6.97142 22.8432 9.83188C24.154 12.3342 26.0606 16.028 27.1327 19.7229C12.4758 24.9675 5.32465 41.1752 11.0456 55.3558C16.6459 68.9418 32.2579 75.6154 46.0815 70.0139C59.7869 64.4135 66.3411 48.8015 60.7408 35.0961C57.8803 27.9462 52.04 22.464 45.0094 19.9605Z" fill="#D95982"/>
<path d="M10.5683 18.4121C11.4028 18.4121 12.1179 19.1272 12.1179 19.9606C12.1179 20.7951 11.4028 21.5114 10.5683 21.5114C9.73499 21.5114 9.01988 20.7951 9.01988 19.9606C9.13808 19.009 9.73499 18.4121 10.5683 18.4121ZM10.5683 24.3706C13.0706 24.3706 15.0978 22.3447 15.0978 19.8424C15.0978 17.34 13.0706 15.3141 10.5683 15.3141C8.06599 15.3141 6.04004 17.34 6.04004 19.8424C6.04004 22.3447 8.18538 24.3706 10.5683 24.3706Z" fill="#D95982"/>
<path d="M62.7651 12.4535C64.4341 12.4535 65.745 13.7643 65.745 15.4322C65.745 17.1012 64.4341 18.412 62.7651 18.412C61.0973 18.412 59.7865 17.1012 59.7865 15.4322C59.7865 13.7643 61.0973 12.4535 62.7651 12.4535ZM62.7651 21.3906C66.1031 21.3906 68.7237 18.7702 68.7237 15.4322C68.7237 12.0953 66.1031 9.47363 62.7651 9.47363C59.4295 9.47363 56.8066 12.0953 56.8066 15.4322C56.8066 18.6508 59.4295 21.3906 62.7651 21.3906Z" fill="#D95982"/>
<path d="M67.1759 30.2097C68.0318 30.2097 68.7246 30.9037 68.7246 31.7596C68.7246 32.6155 68.0318 33.3095 67.1759 33.3095C66.3199 33.3095 65.626 32.6155 65.626 31.7596C65.626 30.9037 66.3199 30.2097 67.1759 30.2097Z" fill="#D95982"/>
<path d="M25.4649 39.1482C26.3208 39.1482 27.0148 39.8422 27.0148 40.6969C27.0148 41.554 26.3208 42.248 25.4649 42.248C24.609 42.248 23.915 41.554 23.915 40.6969C23.915 39.8422 24.609 39.1482 25.4649 39.1482Z" fill="#D95982"/>
<path d="M12.1173 3.39709C12.9732 3.39709 13.6672 4.09105 13.6672 4.9458C13.6672 5.80173 12.9732 6.4957 12.1173 6.4957C11.2614 6.4957 10.5674 5.80173 10.5674 4.9458C10.5674 4.09105 11.2614 3.39709 12.1173 3.39709Z" fill="#D95982"/>
<path d="M6.15927 30.2097C7.0152 30.2097 7.70915 30.9037 7.70915 31.7596C7.70915 32.6155 7.0152 33.3095 6.15927 33.3095C5.30334 33.3095 4.60938 32.6155 4.60938 31.7596C4.60938 30.9037 5.30334 30.2097 6.15927 30.2097Z" fill="#D95982"/>
<path d="M7.58992 60.0033C8.44584 60.0033 9.13862 60.696 9.13862 61.5532C9.13862 62.4079 8.44584 63.1019 7.58992 63.1019C6.73399 63.1019 6.04004 62.4079 6.04004 61.5532C6.04004 60.696 6.73399 60.0033 7.58992 60.0033Z" fill="#D95982"/>
<path d="M64.1954 64.5317C65.0513 64.5317 65.7453 65.2257 65.7453 66.0816C65.7453 66.9376 65.0513 67.6303 64.1954 67.6303C63.3395 67.6303 62.6455 66.9376 62.6455 66.0816C62.6455 65.2257 63.3395 64.5317 64.1954 64.5317Z" fill="#D95982"/>
<path d="M52.2784 13.8838C53.1343 13.8838 53.8283 14.5777 53.8283 15.4325C53.8283 16.2884 53.1343 16.9824 52.2784 16.9824C51.4225 16.9824 50.7285 16.2884 50.7285 15.4325C50.7285 14.5777 51.4225 13.8838 52.2784 13.8838Z" fill="#D95982"/>
</svg>
